<?xml version="1.0" encoding="UTF-8" standalone="no"?>
<svg
   sodipodi:docname="chromo.svg"
   inkscape:version="1.2.2 (b0a8486, 2022-12-01)"
   id="svg8"
   version="1.1"
   viewBox="0 0 138.38265 41.170886"
   height="41.170887mm"
   width="138.38264mm"
   xmlns:inkscape="http://www.inkscape.org/namespaces/inkscape"
   xmlns:sodipodi="http://sodipodi.sourceforge.net/DTD/sodipodi-0.dtd"
   xmlns:xlink="http://www.w3.org/1999/xlink"
   xmlns="http://www.w3.org/2000/svg"
   xmlns:svg="http://www.w3.org/2000/svg"
   xmlns:rdf="http://www.w3.org/1999/02/22-rdf-syntax-ns#"
   xmlns:cc="http://creativecommons.org/ns#"
   xmlns:dc="http://purl.org/dc/elements/1.1/">
  <defs
     id="defs2">
    <linearGradient
       inkscape:collect="always"
       id="linearGradient939">
      <stop
         style="stop-color:#47252d;stop-opacity:1;"
         offset="0.08360129"
         id="stop929" />
      <stop
         style="stop-color:#a3b2b1;stop-opacity:1;"
         offset="0.18810289"
         id="stop931" />
      <stop
         style="stop-color:#6a8490;stop-opacity:1;"
         offset="0.33561099"
         id="stop933" />
      <stop
         style="stop-color:#1b2a47;stop-opacity:1;"
         offset="0.5331592"
         id="stop1117" />
      <stop
         style="stop-color:#c8e7f7;stop-opacity:1;"
         offset="0.73070741"
         id="stop935" />
      <stop
         style="stop-color:#0f1826;stop-opacity:1;"
         offset="0.94855303"
         id="stop937" />
    </linearGradient>
    <linearGradient
       id="linearGradient1199">
      <stop
         style="stop-color:#e92253;stop-opacity:1;"
         offset="0"
         id="stop1187" />
      <stop
         style="stop-color:#c22836;stop-opacity:1;"
         offset="0.13786173"
         id="stop1189" />
      <stop
         style="stop-color:#3b6237;stop-opacity:1;"
         offset="0.36254016"
         id="stop1191" />
      <stop
         style="stop-color:#e9f2fc;stop-opacity:1;"
         offset="0.37113279"
         id="stop1193" />
      <stop
         style="stop-color:#d5e6fd;stop-opacity:1;"
         offset="0.5"
         id="stop1195" />
      <stop
         style="stop-color:#19a3d9;stop-opacity:1;"
         offset="1"
         id="stop2292" />
    </linearGradient>
    <linearGradient
       inkscape:collect="always"
       id="linearGradient1129">
      <stop
         style="stop-color:#3e6995;stop-opacity:1;"
         offset="0"
         id="stop1119" />
      <stop
         style="stop-color:#e0e9f5;stop-opacity:0.98823529;"
         offset="0.30385852"
         id="stop1121" />
      <stop
         style="stop-color:#376da5;stop-opacity:1;"
         offset="0.57315111"
         id="stop1123" />
      <stop
         style="stop-color:#e0e9f5;stop-opacity:0.98823529;"
         offset="0.7206592"
         id="stop1125" />
      <stop
         style="stop-color:#437cba;stop-opacity:1;"
         offset="1"
         id="stop1127" />
    </linearGradient>
    <linearGradient
       id="linearGradient979">
      <stop
         style="stop-color:#e92253;stop-opacity:1;"
         offset="0"
         id="stop967" />
      <stop
         style="stop-color:#c22836;stop-opacity:1;"
         offset="0.13786173"
         id="stop969" />
      <stop
         style="stop-color:#3b6237;stop-opacity:1;"
         offset="0.36254016"
         id="stop971" />
      <stop
         style="stop-color:#e9f2fc;stop-opacity:1;"
         offset="0.39750803"
         id="stop973" />
      <stop
         style="stop-color:#d5e6fd;stop-opacity:1;"
         offset="0.5"
         id="stop975" />
      <stop
         style="stop-color:#30b3e7;stop-opacity:1;"
         offset="1"
         id="stop977" />
    </linearGradient>
    <linearGradient
       id="linearGradient2979"
       inkscape:swatch="solid">
      <stop
         style="stop-color:#000000;stop-opacity:1;"
         offset="0"
         id="stop2977" />
    </linearGradient>
    <linearGradient
       inkscape:collect="always"
       xlink:href="#linearGradient1129"
       id="linearGradient2654"
       x1="143.59465"
       y1="172.33496"
       x2="143.59465"
       y2="133.40366"
       gradientUnits="userSpaceOnUse" />
    <linearGradient
       inkscape:collect="always"
       xlink:href="#linearGradient979"
       id="linearGradient2656"
       gradientUnits="userSpaceOnUse"
       x1="143.59465"
       y1="172.33496"
       x2="143.59465"
       y2="133.40366" />
    <linearGradient
       inkscape:collect="always"
       xlink:href="#linearGradient1199"
       id="linearGradient863"
       gradientUnits="userSpaceOnUse"
       x1="143.59465"
       y1="172.33496"
       x2="143.59465"
       y2="133.40366"
       gradientTransform="translate(0.52916667)" />
    <linearGradient
       inkscape:collect="always"
       xlink:href="#linearGradient939"
       id="linearGradient947"
       x1="185.32616"
       y1="173.22638"
       x2="185.32616"
       y2="131.83798"
       gradientUnits="userSpaceOnUse" />
    <filter
       inkscape:collect="always"
       style="color-interpolation-filters:sRGB"
       id="filter2443"
       x="-0.0015882973"
       y="-0.0064918734"
       width="1.0031766"
       height="1.0129838">
      <feGaussianBlur
         inkscape:collect="always"
         stdDeviation="0.068998176"
         id="feGaussianBlur2445" />
    </filter>
    <filter
       inkscape:collect="always"
       style="color-interpolation-filters:sRGB"
       id="filter2463"
       x="-0.0017844979"
       y="-0.0080335013"
       width="1.0035797"
       height="1.0160699">
      <feGaussianBlur
         inkscape:collect="always"
         stdDeviation="0.040022911"
         id="feGaussianBlur2465" />
    </filter>
  </defs>
  <sodipodi:namedview
     id="base"
     pagecolor="#ffffff"
     bordercolor="#666666"
     borderopacity="1.0"
     inkscape:pageopacity="0.0"
     inkscape:pageshadow="2"
     inkscape:zoom="1.4"
     inkscape:cx="302.5"
     inkscape:cy="70.357142"
     inkscape:document-units="mm"
     inkscape:current-layer="layer1"
     inkscape:document-rotation="0"
     showgrid="false"
     inkscape:pagecheckerboard="true"
     showguides="true"
     inkscape:guide-bbox="true"
     inkscape:window-width="1920"
     inkscape:window-height="1027"
     inkscape:window-x="96"
     inkscape:window-y="25"
     inkscape:window-maximized="0"
     inkscape:showpageshadow="2"
     inkscape:deskcolor="#d1d1d1">
    <inkscape:grid
       type="xygrid"
       id="grid3831"
       originx="-100.24786"
       originy="-119.30267" />
  </sodipodi:namedview>
  <metadata
     id="metadata5">
    <rdf:RDF>
      <cc:Work
         rdf:about="">
        <dc:format>image/svg+xml</dc:format>
        <dc:type
           rdf:resource="http://purl.org/dc/dcmitype/StillImage" />
        <dc:title />
      </cc:Work>
    </rdf:RDF>
  </metadata>
  <g
     inkscape:label="Layer 1"
     inkscape:groupmode="layer"
     id="layer1"
     transform="translate(-123.00853,-131.85221)"
     style="display:inline;fill:url(#linearGradient2656);fill-opacity:1;stroke:url(#linearGradient2654);stroke-width:0.79375;stroke-dasharray:none"
     class="UnoptimicedTransforms">
    <path
       id="path2260"
       style="font-size:50.5352px;line-height:1.25;font-family:'NovaMono for Powerline';-inkscape-font-specification:'NovaMono for Powerline';letter-spacing:-3.93227px;word-spacing:0px;display:inline;mix-blend-mode:normal;fill:url(#linearGradient947);fill-opacity:1;stroke:#1b253d;stroke-width:0.3;stroke-linecap:square;stroke-linejoin:miter;stroke-miterlimit:4;stroke-dasharray:none;stroke-opacity:1;paint-order:normal;filter:url(#filter2463)"
       inkscape:label="3d"
       d="m 151.45117,132.50195 c -1.7755,0.77442 -3.54951,1.55326 -5.32422,2.33008 v 37.86524 c 2.02173,-0.88357 4.04314,-1.76784 6.06446,-2.65235 0.0329,-6.00797 -0.0681,-12.02171 0.0564,-18.02599 0.35912,-2.57596 3.39698,-4.23898 5.78049,-3.24759 1.87544,0.70101 2.99301,2.76962 2.75486,4.72632 v 19.19961 c 2.02229,-0.88378 4.04449,-1.76773 6.06641,-2.65235 -0.035,-6.18251 0.0734,-12.36867 -0.0625,-18.54883 -0.49081,-5.12697 -5.37967,-9.37057 -10.53125,-9.10742 -1.39525,0.0322 -2.79132,0.31147 -4.06445,0.89063 v -11.10157 c -0.24675,0.10808 -0.49349,0.21615 -0.74024,0.32422 z m 79.30652,9.79493 c -1.5812,0.0655 -3.15382,0.59093 -4.40821,1.5664 -2.87575,-2.26212 -7.3906,-2.08227 -10.03172,0.47745 -1.79032,1.59856 -2.73711,4.03456 -2.53468,6.42372 v 21.84102 c 2.02228,-0.88378 4.04449,-1.76773 6.0664,-2.65235 0.0277,-6.7579 -0.0428,-13.52184 0.0786,-20.27589 0.2437,-1.28134 2.11659,-1.92786 2.93661,-0.78595 0.79278,1.14332 0.3164,2.62638 0.44023,3.91888 -0.007,6.59843 -0.0164,13.19687 -0.0218,19.79531 2.02228,-0.88378 4.04449,-1.76773 6.0664,-2.65235 0.022,-6.73485 -0.0317,-13.4737 0.0677,-20.20598 0.18804,-1.29225 2.03726,-2.01529 2.90498,-0.90534 0.8499,1.10799 0.35719,2.5918 0.48256,3.86953 -0.007,6.63138 -0.0162,13.26276 -0.0216,19.89414 2.02228,-0.88378 4.04449,-1.76773 6.0664,-2.65235 -0.0196,-6.91116 0.0567,-13.8253 -0.0516,-20.73456 -0.25161,-3.57837 -3.35695,-6.7566 -6.97779,-6.89712 -0.35288,-0.0349 -0.70818,-0.0366 -1.06239,-0.0246 z m -29.41407,0.008 c -5.31578,0.0894 -10.04864,4.99855 -9.80835,10.3374 -0.0337,3.42497 -0.0694,6.85517 0.0317,10.27759 0.46925,4.93427 4.98939,9.11955 9.96312,9.1256 4.73916,0.24864 9.364,-3.22229 10.4105,-7.85705 0.54855,-2.26099 0.18612,-4.60156 0.29239,-6.90032 -0.0426,-2.2163 0.12519,-4.45403 -0.17454,-6.6551 -0.89889,-4.9104 -5.71604,-8.70396 -10.71485,-8.32812 z m 48.88672,0 c -5.31774,0 -10.0429,5.00236 -9.80973,10.33901 -0.0239,3.42656 -0.064,6.85802 0.0395,10.28187 0.46476,4.97097 5.05903,9.16739 10.06454,9.12309 4.75903,0.20085 9.36863,-3.34503 10.33949,-8.01678 0.50209,-2.21459 0.15241,-4.49841 0.25807,-6.74553 -0.0393,-2.25112 0.12838,-4.52479 -0.19458,-6.75901 -0.94657,-4.86163 -5.72178,-8.22265 -10.69727,-8.22265 z m -117.13464,0.0918 c -5.31503,0.0906 -10.04664,4.9992 -9.8064,10.3374 -0.0337,3.42497 -0.0694,6.85518 0.0317,10.27759 0.46937,4.93452 4.98932,9.11884 9.96309,9.12619 3.12222,0.15142 6.26556,-1.28494 8.15196,-3.78561 1.79135,-2.10661 2.78459,-4.89653 2.55025,-7.66807 v -2.68203 c -2.02821,0.89992 -4.05607,1.80061 -6.08399,2.70117 0.2998,1.97868 -0.64623,4.18527 -2.5537,4.98392 -2.55704,1.16328 -5.93985,-0.8621 -6.0048,-3.70471 -0.0339,-2.40448 0.0114,-4.81223 -0.0198,-7.21865 0.0577,-1.55996 -0.23776,-3.34575 0.90776,-4.61123 1.44796,-1.87598 4.49472,-2.26052 6.23746,-0.57801 1.17133,1.01578 1.60162,2.62011 1.45262,4.12283 v 2.68554 c 2.01817,-0.90896 4.03676,-1.81703 6.05468,-2.72656 0.27567,-3.27277 -1.04825,-6.64191 -3.57792,-8.75903 -1.97056,-1.76817 -4.66929,-2.65052 -7.30294,-2.50074 z m 45.72461,0 c -5.3146,0.0898 -10.05138,5.00046 -9.80353,10.3394 -0.0693,6.65347 -0.007,13.30761 -0.0285,19.96139 2.02228,-0.88378 4.04449,-1.76773 6.06641,-2.65235 0.0181,-5.99054 -0.0471,-11.98399 0.043,-17.97265 0.3685,-2.67368 3.60032,-4.39079 6.02559,-3.20374 1.75298,0.77731 2.74319,2.75942 2.52323,4.63303 v 2.6625 c 2.01918,-0.88213 4.03758,-1.76604 6.05664,-2.64844 0.42125,-4.87572 -3.07986,-9.79081 -7.88077,-10.84805 -0.98073,-0.23516 -1.99531,-0.31634 -3.00204,-0.27109 z m 23.37097,6.03125 c 2.1885,0.084 4.16324,2.2413 3.97607,4.49493 -0.0548,3.21625 0.1202,6.44509 -0.10378,9.653 -0.46701,2.42509 -3.33946,4.08573 -5.64068,3.0624 -1.84711,-0.67874 -3.1163,-2.65412 -2.84609,-4.62361 0.0504,-3.09292 -0.11162,-6.19782 0.0945,-9.28286 0.41095,-2.0055 2.46355,-3.57456 4.52,-3.30386 z m 48.88867,0 c 2.1885,0.084 4.16324,2.2413 3.97607,4.49493 -0.0547,3.21625 0.12021,6.44509 -0.10378,9.653 -0.46701,2.42509 -3.33946,4.08573 -5.64068,3.0624 -1.84727,-0.67994 -3.11341,-2.65393 -2.84609,-4.62361 0.0504,-3.09292 -0.11162,-6.19782 0.0945,-9.28286 0.41095,-2.0055 2.46355,-3.57456 4.52,-3.30386 z"
       sodipodi:nodetypes="ccccccccccccccccccccccccccccccccccccccccccccsccccccsscccccccccccccccccccscccccccccsscccccccccccccccc" />
    <path
       id="path394"
       style="font-size:50.5352px;line-height:1.25;font-family:'NovaMono for Powerline';-inkscape-font-specification:'NovaMono for Powerline';letter-spacing:-3.93227px;word-spacing:0px;display:inline;opacity:1;mix-blend-mode:normal;fill:url(#linearGradient863);fill-opacity:1;stroke:#fcfcfc;stroke-width:0.1;stroke-dasharray:none;stroke-opacity:1;filter:url(#filter2443)"
       d="m 245.40602,161.36936 c 0,1.51342 0.55108,2.78009 1.65325,3.80001 1.11861,1.03637 2.3935,1.55455 3.82468,1.55455 1.38182,0 2.59914,-0.51818 3.65196,-1.55455 1.01991,-1.00347 1.54632,-2.27014 1.57922,-3.80001 v -8.93249 c -0.0329,-1.52987 -0.55934,-2.79654 -1.57922,-3.80001 -1.05282,-1.03637 -2.36884,-1.55455 -3.94806,-1.55455 -1.38183,0 -2.59093,0.51818 -3.62729,1.55455 -1.01992,1.01991 -1.5381,2.23723 -1.55454,3.65196 v 0.14805 z m -3.94807,-9.00652 c 0,-2.56624 0.90476,-4.75412 2.7143,-6.56365 1.80952,-1.80953 3.99741,-2.71429 6.56365,-2.71429 2.56624,0 4.76235,0.90476 6.58833,2.71429 1.82598,1.80953 2.73897,3.99741 2.73897,6.56365 v 9.08055 c 0,2.56624 -0.91299,4.75412 -2.73897,6.56365 -1.82598,1.80953 -4.02209,2.71429 -6.58833,2.71429 -2.56624,0 -4.75413,-0.90476 -6.56365,-2.71429 -1.80954,-1.80953 -2.7143,-3.99741 -2.7143,-6.56365 z m -26.61586,18.35849 V 149.7966 c 0,-1.84243 0.65801,-3.42165 1.97403,-4.73767 1.31602,-1.31602 2.90347,-1.97403 4.76235,-1.97403 1.92468,0 3.51213,0.64156 4.76235,1.92468 1.31602,-1.28312 2.89524,-1.92468 4.73768,-1.92468 1.97402,0 3.57792,0.64156 4.8117,1.92468 1.25022,1.29957 1.88355,2.90347 1.9,4.8117 v 19.17277 l -3.94806,1.72728 0.0247,-20.80135 c 0,-0.82251 -0.27143,-1.52165 -0.81429,-2.09741 -0.54286,-0.57576 -1.18442,-0.86364 -1.92468,-0.86364 -0.77317,0 -1.43118,0.28788 -1.97403,0.86364 -0.55932,0.59221 -0.83897,1.28312 -0.83897,2.07273 v 0.0247 l -0.0247,19.07407 -3.94806,1.72728 0.0247,-20.80135 c 0,-0.82251 -0.27143,-1.52165 -0.81429,-2.09741 -0.54286,-0.57576 -1.18442,-0.86364 -1.92468,-0.86364 -0.75671,0 -1.41472,0.28788 -1.97403,0.86364 -0.55931,0.57576 -0.83896,1.2749 -0.83896,2.09741 l -0.0247,19.07407 z m -18.32493,-9.35197 c 0,1.51342 0.55108,2.78009 1.65325,3.80001 1.11862,1.03637 2.39351,1.55455 3.82469,1.55455 1.38182,0 2.59913,-0.51818 3.65195,-1.55455 1.01992,-1.00347 1.54633,-2.27014 1.57923,-3.80001 v -8.93249 c -0.0329,-1.52987 -0.55928,-2.79654 -1.57923,-3.80001 -1.05282,-1.03637 -2.36884,-1.55455 -3.94806,-1.55455 -1.38182,0 -2.59092,0.51818 -3.62728,1.55455 -1.01992,1.01991 -1.5381,2.23723 -1.55455,3.65196 v 0.14805 z m -3.94806,-9.00652 c 0,-2.56624 0.90476,-4.75412 2.71429,-6.56365 1.80952,-1.80953 3.99741,-2.71429 6.56365,-2.71429 2.56624,0 4.76235,0.90476 6.58833,2.71429 1.82598,1.80953 2.73897,3.99741 2.73897,6.56365 v 9.08055 c 0,2.56624 -0.91299,4.75412 -2.73897,6.56365 -1.82598,1.80953 -4.02209,2.71429 -6.58833,2.71429 -2.56624,0 -4.75413,-0.90476 -6.56365,-2.71429 -1.80953,-1.80953 -2.71429,-3.99741 -2.71429,-6.56365 z m -22.52194,18.45014 v -18.35849 c 0,-2.56624 0.90476,-4.75413 2.71429,-6.56366 1.80953,-1.80953 3.99742,-2.71429 6.56366,-2.71429 2.61559,0 4.8117,0.90476 6.58833,2.71429 1.82598,1.87533 2.73897,4.06322 2.73897,6.56366 v 0.0987 l -3.94807,1.72727 v -1.75195 c -0.0329,-1.52987 -0.55934,-2.79654 -1.57922,-3.80001 -1.05282,-1.03637 -2.29482,-1.55455 -3.72599,-1.55455 -1.49697,0 -2.77187,0.51818 -3.82468,1.55455 -1.05282,1.03637 -1.57923,2.27836 -1.57923,3.72599 v 0.074 16.55719 z m -22.86203,0 v -35.55724 l 3.94807,-1.72728 v 11.30133 c 1.54632,-1.10217 3.32295,-1.65325 5.32988,-1.65325 2.56624,0 4.76235,0.90476 6.58833,2.71429 1.82598,1.80953 2.73897,3.99742 2.73897,6.56366 v 16.63121 l -3.94807,1.72728 v -18.28447 c -0.0329,-1.52987 -0.55934,-2.79654 -1.57922,-3.80001 -1.05282,-1.03637 -2.29481,-1.55455 -3.72598,-1.55455 -1.52988,0 -2.813,0.51818 -3.84936,1.55455 -1.01992,1.01992 -1.5381,2.23724 -1.55455,3.65196 v 0.14805 16.55719 z M 128.27117,161.461 c 0,1.51343 0.55108,2.7801 1.65325,3.80001 1.11862,1.03637 2.39351,1.55455 3.82468,1.55455 1.38183,0 2.59915,-0.51818 3.65196,-1.55455 1.01992,-1.00347 1.54633,-2.27014 1.57923,-3.80001 v -0.34545 l 3.94806,-1.75195 v 2.17143 c 0,2.30303 -0.98702,4.50737 -2.96105,6.613 -1.67793,1.77663 -3.80001,2.66495 -6.36625,2.66495 -2.56624,0 -4.75412,-0.90477 -6.56365,-2.7143 -1.80953,-1.80953 -2.71429,-3.99741 -2.71429,-6.56365 v -9.08054 c 0,-2.56624 0.90476,-4.75413 2.71429,-6.56366 1.80953,-1.80953 3.99741,-2.71429 6.56365,-2.71429 2.59914,0 4.79525,0.90476 6.58833,2.71429 1.82598,1.80953 2.73897,3.99742 2.73897,6.56366 v 0.24675 l -3.94806,1.77663 v -1.94936 c -0.0329,-1.52987 -0.55934,-2.79654 -1.57923,-3.80001 -1.05281,-1.03637 -2.29481,-1.55455 -3.72598,-1.55455 -1.48053,0 -2.75542,0.51818 -3.82469,1.55455 -1.05281,1.03637 -1.57922,2.27836 -1.57922,3.72599 v 0.074 z"
       inkscape:label="main (Font Nova Mono for Powerline)"
       sodipodi:nodetypes="scsccccssccsssssssssssscssscscccccsscsccccssscccscsccccssccsssssssssssscssscsccccssscccccccsssccccssccccscsccccscsssscscsccccscscs" />
  </g>
</svg>
