<?xml version="1.0" encoding="UTF-8" standalone="no"?>
<svg
   sodipodi:docname="chromo.svg"
   inkscape:version="1.2.2 (b0a8486, 2022-12-01)"
   id="svg8"
   version="1.1"
   viewBox="0 0 137.7587 41.127006"
   height="41.127007mm"
   width="137.7587mm"
   xmlns:inkscape="http://www.inkscape.org/namespaces/inkscape"
   xmlns:sodipodi="http://sodipodi.sourceforge.net/DTD/sodipodi-0.dtd"
   xmlns:xlink="http://www.w3.org/1999/xlink"
   xmlns="http://www.w3.org/2000/svg"
   xmlns:svg="http://www.w3.org/2000/svg"
   xmlns:rdf="http://www.w3.org/1999/02/22-rdf-syntax-ns#"
   xmlns:cc="http://creativecommons.org/ns#"
   xmlns:dc="http://purl.org/dc/elements/1.1/">
  <defs
     id="defs2">
    <linearGradient
       inkscape:collect="always"
       id="linearGradient1129">
      <stop
         style="stop-color:#3e6995;stop-opacity:1;"
         offset="0"
         id="stop1119" />
      <stop
         style="stop-color:#e0e9f5;stop-opacity:0.98823529;"
         offset="0.30385852"
         id="stop1121" />
      <stop
         style="stop-color:#376da5;stop-opacity:1;"
         offset="0.57315111"
         id="stop1123" />
      <stop
         style="stop-color:#e0e9f5;stop-opacity:0.98823529;"
         offset="0.7206592"
         id="stop1125" />
      <stop
         style="stop-color:#437cba;stop-opacity:1;"
         offset="1"
         id="stop1127" />
    </linearGradient>
    <linearGradient
       id="linearGradient993">
      <stop
         style="stop-color:#854a59;stop-opacity:1;"
         offset="0"
         id="stop981" />
      <stop
         style="stop-color:#c22836;stop-opacity:1;"
         offset="0.08963022"
         id="stop983" />
      <stop
         style="stop-color:#85ac7e;stop-opacity:1;"
         offset="0.34324759"
         id="stop985" />
      <stop
         style="stop-color:#e9f2fc;stop-opacity:1;"
         offset="0.37178457"
         id="stop987" />
      <stop
         style="stop-color:#d5e6fd;stop-opacity:1;"
         offset="0.42604503"
         id="stop989" />
      <stop
         style="stop-color:#30b3e7;stop-opacity:1;"
         offset="1"
         id="stop991" />
    </linearGradient>
    <linearGradient
       id="linearGradient979">
      <stop
         style="stop-color:#e92253;stop-opacity:1;"
         offset="0"
         id="stop967" />
      <stop
         style="stop-color:#c22836;stop-opacity:1;"
         offset="0.13786173"
         id="stop969" />
      <stop
         style="stop-color:#3b6237;stop-opacity:1;"
         offset="0.36254016"
         id="stop971" />
      <stop
         style="stop-color:#e9f2fc;stop-opacity:1;"
         offset="0.39750803"
         id="stop973" />
      <stop
         style="stop-color:#d5e6fd;stop-opacity:1;"
         offset="0.5"
         id="stop975" />
      <stop
         style="stop-color:#30b3e7;stop-opacity:1;"
         offset="1"
         id="stop977" />
    </linearGradient>
    <linearGradient
       id="linearGradient965">
      <stop
         style="stop-color:#854a59;stop-opacity:1;"
         offset="0"
         id="stop953" />
      <stop
         style="stop-color:#c22836;stop-opacity:1;"
         offset="0.08963022"
         id="stop955" />
      <stop
         style="stop-color:#85ac7e;stop-opacity:1;"
         offset="0.23713827"
         id="stop957" />
      <stop
         style="stop-color:#e9f2fc;stop-opacity:1;"
         offset="0.37178457"
         id="stop959" />
      <stop
         style="stop-color:#d5e6fd;stop-opacity:1;"
         offset="0.42604503"
         id="stop961" />
      <stop
         style="stop-color:#30b3e7;stop-opacity:1;"
         offset="1"
         id="stop963" />
    </linearGradient>
    <linearGradient
       id="cool">
      <stop
         style="stop-color:#854a59;stop-opacity:1;"
         offset="0"
         id="stop1623" />
      <stop
         style="stop-color:#c22836;stop-opacity:1;"
         offset="0.08963022"
         id="stop1625" />
      <stop
         style="stop-color:#85ac7e;stop-opacity:1;"
         offset="0.34324759"
         id="stop1627" />
      <stop
         style="stop-color:#e9f2fc;stop-opacity:1;"
         offset="0.37178457"
         id="stop1629" />
      <stop
         style="stop-color:#d5e6fd;stop-opacity:1;"
         offset="0.42604503"
         id="stop1631" />
      <stop
         style="stop-color:#30b3e7;stop-opacity:1;"
         offset="1"
         id="stop1633" />
    </linearGradient>
    <linearGradient
       inkscape:collect="always"
       id="linearGradient3507">
      <stop
         style="stop-color:#041940;stop-opacity:1;"
         offset="0"
         id="stop3519" />
      <stop
         style="stop-color:#c2e3f9;stop-opacity:1;"
         offset="0.22347265"
         id="stop3511" />
      <stop
         style="stop-color:#041940;stop-opacity:1;"
         offset="0.48673636"
         id="stop3517" />
      <stop
         style="stop-color:#c2e3f9;stop-opacity:1;"
         offset="0.63102895"
         id="stop3513" />
      <stop
         style="stop-color:#041940;stop-opacity:1;"
         offset="0.87821543"
         id="stop3515" />
    </linearGradient>
    <linearGradient
       inkscape:collect="always"
       id="linearGradient2509">
      <stop
         style="stop-color:#f5f5f5;stop-opacity:1;"
         offset="0"
         id="stop2505" />
      <stop
         style="stop-color:#3a3a3a;stop-opacity:1;"
         offset="0.13734062"
         id="stop2560" />
      <stop
         style="stop-color:#ececec;stop-opacity:1;"
         offset="0.37819174"
         id="stop2564" />
      <stop
         style="stop-color:#404040;stop-opacity:1;"
         offset="0.52263445"
         id="stop3294" />
      <stop
         style="stop-color:#e7e7e7;stop-opacity:1;"
         offset="0.68328023"
         id="stop3296" />
      <stop
         style="stop-color:#3a3a3a;stop-opacity:1;"
         offset="0.84392607"
         id="stop2566" />
      <stop
         style="stop-color:#ffffff;stop-opacity:1;"
         offset="1"
         id="stop2507" />
    </linearGradient>
    <linearGradient
       id="cool-1">
      <stop
         style="stop-color:#854a59;stop-opacity:1;"
         offset="0"
         id="stop4569" />
      <stop
         style="stop-color:#c22836;stop-opacity:1;"
         offset="0.08963022"
         id="stop4628" />
      <stop
         style="stop-color:#85ac7e;stop-opacity:1;"
         offset="0.34324759"
         id="stop4626" />
      <stop
         style="stop-color:#e9f2fc;stop-opacity:1;"
         offset="0.37178457"
         id="stop4630" />
      <stop
         style="stop-color:#d5e6fd;stop-opacity:1;"
         offset="0.42604503"
         id="stop4622" />
      <stop
         style="stop-color:#30b3e7;stop-opacity:1;"
         offset="1"
         id="stop4571" />
    </linearGradient>
    <linearGradient
       id="linearGradient2979"
       inkscape:swatch="solid">
      <stop
         style="stop-color:#000000;stop-opacity:1;"
         offset="0"
         id="stop2977" />
    </linearGradient>
    <linearGradient
       inkscape:collect="always"
       xlink:href="#linearGradient2509"
       id="linearGradient3322"
       gradientUnits="userSpaceOnUse"
       x1="138.24527"
       y1="157.45082"
       x2="138.24527"
       y2="171.28201" />
    <linearGradient
       inkscape:collect="always"
       xlink:href="#linearGradient3507"
       id="linearGradient1565"
       gradientUnits="userSpaceOnUse"
       x1="142.30652"
       y1="159.3217"
       x2="142.30652"
       y2="170.74748"
       gradientTransform="translate(5.6167233,2.2556595)" />
    <linearGradient
       inkscape:collect="always"
       xlink:href="#linearGradient1129"
       id="linearGradient2654"
       x1="143.59465"
       y1="172.33496"
       x2="143.59465"
       y2="133.40366"
       gradientUnits="userSpaceOnUse" />
    <linearGradient
       inkscape:collect="always"
       xlink:href="#linearGradient979"
       id="linearGradient2656"
       gradientUnits="userSpaceOnUse"
       x1="143.59465"
       y1="172.33496"
       x2="143.59465"
       y2="133.40366" />
    <linearGradient
       inkscape:collect="always"
       xlink:href="#linearGradient979"
       id="linearGradient863"
       gradientUnits="userSpaceOnUse"
       x1="143.59465"
       y1="172.33496"
       x2="143.59465"
       y2="133.40366"
       gradientTransform="translate(0.52916667)" />
    <linearGradient
       inkscape:collect="always"
       xlink:href="#linearGradient3507"
       id="linearGradient2269"
       x1="186.12827"
       y1="172.48273"
       x2="186.12827"
       y2="132.92683"
       gradientUnits="userSpaceOnUse" />
  </defs>
  <sodipodi:namedview
     id="base"
     pagecolor="#ffffff"
     bordercolor="#666666"
     borderopacity="1.0"
     inkscape:pageopacity="0.0"
     inkscape:pageshadow="2"
     inkscape:zoom="0.9899495"
     inkscape:cx="182.83761"
     inkscape:cy="55.55839"
     inkscape:document-units="mm"
     inkscape:current-layer="layer1"
     inkscape:document-rotation="0"
     showgrid="false"
     inkscape:pagecheckerboard="true"
     showguides="true"
     inkscape:guide-bbox="true"
     inkscape:window-width="1339"
     inkscape:window-height="728"
     inkscape:window-x="0"
     inkscape:window-y="25"
     inkscape:window-maximized="0"
     inkscape:showpageshadow="2"
     inkscape:deskcolor="#d1d1d1">
    <inkscape:grid
       type="xygrid"
       id="grid3831"
       originx="-100.29547"
       originy="-119.32463" />
  </sodipodi:namedview>
  <metadata
     id="metadata5">
    <rdf:RDF>
      <cc:Work
         rdf:about="">
        <dc:format>image/svg+xml</dc:format>
        <dc:type
           rdf:resource="http://purl.org/dc/dcmitype/StillImage" />
        <dc:title />
      </cc:Work>
    </rdf:RDF>
  </metadata>
  <g
     inkscape:label="Layer 1"
     inkscape:groupmode="layer"
     id="layer1"
     transform="translate(-123.05614,-131.87417)"
     style="display:inline;fill:url(#linearGradient2656);fill-opacity:1;stroke:url(#linearGradient2654);stroke-width:0.79375;stroke-dasharray:none"
     class="UnoptimicedTransforms">
    <path
       id="path394"
       style="font-size:50.5352px;line-height:1.25;font-family:'NovaMono for Powerline';-inkscape-font-specification:'NovaMono for Powerline';letter-spacing:-3.93227px;word-spacing:0px;display:inline;mix-blend-mode:normal;fill:url(#linearGradient863);fill-opacity:1;stroke:#ffffff;stroke-width:0.529167;stroke-dasharray:none;stroke-opacity:0.390909"
       d="m 244.87685,161.63663 q 0,2.27013 1.65325,3.80001 1.67792,1.55455 3.82468,1.55455 2.07273,0 3.65196,-1.55455 1.52987,-1.5052 1.57922,-3.80001 v -8.93249 q -0.0494,-2.29481 -1.57922,-3.80001 -1.57923,-1.55455 -3.94806,-1.55455 -2.07274,0 -3.62729,1.55455 -1.52987,1.52987 -1.55454,3.65196 v 0.14805 z m -3.94807,-9.00652 q 0,-3.84936 2.7143,-6.56365 2.71429,-2.71429 6.56365,-2.71429 3.84936,0 6.58833,2.71429 2.73897,2.71429 2.73897,6.56365 v 9.08055 q 0,3.84936 -2.73897,6.56365 -2.73897,2.71429 -6.58833,2.71429 -3.84936,0 -6.56365,-2.71429 -2.7143,-2.71429 -2.7143,-6.56365 z m -26.61586,18.35849 v -20.92473 q 0,-2.76364 1.97403,-4.73767 1.97403,-1.97403 4.76235,-1.97403 2.88702,0 4.76235,1.92468 1.97403,-1.92468 4.73768,-1.92468 2.96104,0 4.8117,1.92468 1.87533,1.94935 1.9,4.8117 v 19.17277 l -3.94806,1.72728 0.0247,-20.80135 q 0,-1.23377 -0.81429,-2.09741 -0.81429,-0.86364 -1.92468,-0.86364 -1.15975,0 -1.97403,0.86364 -0.83897,0.88831 -0.83897,2.07273 v 0.0247 l -0.0247,19.07407 -3.94806,1.72728 0.0247,-20.80135 q 0,-1.23377 -0.81429,-2.09741 -0.81428,-0.86364 -1.92468,-0.86364 -1.13506,0 -1.97403,0.86364 -0.83896,0.86364 -0.83896,2.09741 l -0.0247,19.07407 z m -18.32493,-9.35197 q 0,2.27013 1.65325,3.80001 1.67793,1.55455 3.82469,1.55455 2.07273,0 3.65195,-1.55455 1.52988,-1.5052 1.57923,-3.80001 v -8.93249 q -0.0493,-2.29481 -1.57923,-3.80001 -1.57922,-1.55455 -3.94806,-1.55455 -2.07273,0 -3.62728,1.55455 -1.52987,1.52987 -1.55455,3.65196 v 0.14805 z m -3.94806,-9.00652 q 0,-3.84936 2.71429,-6.56365 2.71429,-2.71429 6.56365,-2.71429 3.84937,0 6.58833,2.71429 2.73897,2.71429 2.73897,6.56365 v 9.08055 q 0,3.84936 -2.73897,6.56365 -2.73896,2.71429 -6.58833,2.71429 -3.84936,0 -6.56365,-2.71429 -2.71429,-2.71429 -2.71429,-6.56365 z m -21.99277,18.45014 v -18.35849 q 0,-3.84936 2.71429,-6.56366 2.7143,-2.71429 6.56366,-2.71429 3.92338,0 6.58833,2.71429 2.73897,2.813 2.73897,6.56366 v 0.0987 l -3.94807,1.72727 v -1.75195 q -0.0494,-2.29481 -1.57922,-3.80001 -1.57923,-1.55455 -3.72599,-1.55455 -2.24546,0 -3.82468,1.55455 -1.57923,1.55455 -1.57923,3.72599 0,0.0494 0,0.074 v 16.55719 z m -22.86203,0 v -35.55724 l 3.94807,-1.72728 v 11.30133 q 2.31948,-1.65325 5.32988,-1.65325 3.84936,0 6.58833,2.71429 2.73897,2.7143 2.73897,6.56366 v 16.63121 l -3.94807,1.72728 v -18.28447 q -0.0494,-2.29481 -1.57922,-3.80001 -1.57923,-1.55455 -3.72598,-1.55455 -2.29482,0 -3.84936,1.55455 -1.52988,1.52988 -1.55455,3.65196 v 0.14805 16.55719 z m -18.91396,-9.35198 q 0,2.27014 1.65325,3.80001 1.67793,1.55455 3.82468,1.55455 2.07274,0 3.65196,-1.55455 1.52988,-1.5052 1.57923,-3.80001 v -0.34545 l 3.94806,-1.75195 v 2.17143 q 0,3.45455 -2.96105,6.613 -2.51689,2.66495 -6.36625,2.66495 -3.84936,0 -6.56365,-2.7143 -2.71429,-2.71429 -2.71429,-6.56365 v -9.08054 q 0,-3.84936 2.71429,-6.56366 2.71429,-2.71429 6.56365,-2.71429 3.89871,0 6.58833,2.71429 2.73897,2.7143 2.73897,6.56366 v 0.24675 l -3.94806,1.77663 v -1.94936 q -0.0494,-2.29481 -1.57923,-3.80001 -1.57922,-1.55455 -3.72598,-1.55455 -2.22079,0 -3.82469,1.55455 -1.57922,1.55455 -1.57922,3.72599 0,0.0494 0,0.074 z"
       inkscape:label="main (Font Nova Mono for Powerline)" />
    <path
       id="path1215"
       style="font-size:50.5352px;line-height:1.25;font-family:'NovaMono for Powerline';-inkscape-font-specification:'NovaMono for Powerline';letter-spacing:-3.93227px;word-spacing:0px;display:inline;mix-blend-mode:normal;fill:none;fill-opacity:1;stroke:url(#linearGradient2269);stroke-width:1.11125;stroke-dasharray:none;stroke-opacity:1"
       inkscape:label="extrude"
       d="m 150.91992,133.31055 c -1.42121,0.62242 -2.84253,1.24459 -4.26367,1.86718 0,12.23698 0,24.47396 0,36.71094 1.66886,-0.72926 3.33741,-1.45924 5.00586,-2.18945 0.0183,-5.83959 -0.0365,-11.68119 0.0273,-17.51953 0.22913,-2.59669 2.87799,-4.5751 5.43297,-4.17129 2.4571,0.25142 4.36783,2.64435 4.19008,5.08847 0,6.26394 0,12.52787 0,18.7918 1.6694,-0.72952 3.33877,-1.4591 5.00781,-2.18945 -0.0185,-5.89633 0.0366,-11.79472 -0.027,-17.68979 -0.20901,-4.81051 -4.53841,-8.98219 -9.34016,-9.08365 -1.82876,-0.0802 -3.6989,0.29314 -5.29101,1.21484 0,-3.71809 0,-7.43619 0,-11.15429 -0.2474,0.10807 -0.49479,0.21614 -0.74219,0.32422 z m 49.9082,9.52343 c -4.73991,0.0948 -8.99433,4.18633 -9.28008,8.91619 -0.0808,3.48843 -0.0308,6.98268 -0.0246,10.47249 0.10427,4.76622 4.25195,9.02797 9.012,9.26413 3.11614,0.29261 6.29583,-1.02871 8.29794,-3.43234 1.74947,-1.92359 2.49019,-4.57885 2.34045,-7.14351 -0.0315,-3.09474 0.063,-6.19385 -0.0469,-9.28594 -0.36357,-4.76358 -4.74528,-8.79674 -9.5183,-8.79593 -0.26027,-0.0136 -0.52025,-9.5e-4 -0.78053,0.005 z m 19.86329,-0.004 c -3.73509,0.0716 -7.01667,3.49483 -6.90821,7.23437 0,7.24414 0,14.48828 0,21.73243 1.66941,-0.72952 3.33878,-1.45911 5.00782,-2.18946 0.0236,-6.58993 -0.0169,-13.18296 0.0486,-19.77096 0.11347,-1.58995 2.15108,-2.72396 3.46894,-1.68021 1.07559,0.7233 1.05491,2.1057 0.99854,3.25469 -0.008,6.79531 -0.0179,13.59062 -0.0239,20.38594 1.66941,-0.72952 3.33878,-1.45911 5.00782,-2.18946 0.0252,-6.60288 -0.0202,-13.20926 0.0511,-19.80995 0.15227,-1.50869 2.01374,-2.62645 3.3391,-1.72499 1.05885,0.61856 1.22719,1.92772 1.12625,3.03846 -0.008,6.89531 -0.0181,13.79062 -0.0243,20.68594 1.66941,-0.72952 3.33878,-1.45911 5.00782,-2.18946 -0.0168,-6.68187 0.0336,-13.36542 -0.025,-20.04625 -0.1119,-3.22956 -2.67076,-6.24568 -5.92065,-6.64262 -2.11817,-0.34205 -4.40841,0.1859 -6.02502,1.63614 -1.38131,-1.26667 -3.27867,-1.81464 -5.1289,-1.72461 z m 29.02539,0.004 c -4.77458,0.0951 -9.05243,4.24644 -9.28674,9.01597 -0.0576,3.48889 -0.0344,6.98296 -0.0113,10.47248 0.15106,4.76418 4.3434,8.98389 9.10507,9.17142 3.08531,0.26063 6.21695,-1.06353 8.19819,-3.4394 1.77776,-1.94809 2.5001,-4.64769 2.34045,-7.24351 -0.0378,-3.09495 0.0758,-6.19585 -0.0568,-9.28719 -0.41591,-4.7584 -4.83452,-8.74674 -9.60839,-8.69714 -0.22686,-0.011 -0.45371,0.004 -0.68056,0.007 z m -116.60547,0.0918 c -4.74022,0.0949 -8.99421,4.18617 -9.28012,8.91618 -0.0808,3.48843 -0.0308,6.98269 -0.0246,10.47249 0.10431,4.76621 4.25192,9.02799 9.012,9.26413 2.90337,0.2708 5.92798,-0.84129 7.80937,-3.10347 1.83164,-1.98151 3.01929,-4.63892 2.82902,-7.37238 0,-0.76211 0,-1.52421 0,-2.28632 -1.66863,0.74086 -3.338,1.48005 -5.00586,2.22265 0.16203,1.85447 -0.6308,3.79666 -2.2553,4.78449 -2.19923,1.50586 -5.4021,0.5358 -6.73401,-1.67688 -1.03882,-1.66032 -0.54396,-3.69655 -0.66108,-5.54159 0.0419,-2.22263 -0.0854,-4.45493 0.0662,-6.67154 0.40045,-2.71041 3.42207,-4.56599 6.03371,-3.80339 2.20589,0.56031 3.73026,2.81567 3.55045,5.06673 0,0.78919 0,1.57838 0,2.36757 1.66864,-0.75127 3.33718,-1.50274 5.00586,-2.2539 0.1587,-2.77236 -0.8623,-5.59524 -2.88672,-7.51953 -1.92286,-2.009 -4.69467,-3.02414 -7.45898,-2.86524 z m 45.72265,0 c -4.73986,0.096 -8.9922,4.18644 -9.27816,8.91618 -0.0901,4.65794 -0.0122,9.32087 -0.0382,13.9807 0,2.022 0,4.04401 0,6.06601 1.6694,-0.72952 3.33877,-1.4591 5.00781,-2.18945 0.0156,-5.82274 -0.0312,-11.6469 0.0234,-17.46875 0.21821,-2.67874 3.01738,-4.70759 5.63482,-4.19354 2.37105,0.35083 4.16183,2.68812 3.99213,5.06385 0,0.75156 0,1.50313 0,2.25469 1.66887,-0.72926 3.33741,-1.45925 5.00586,-2.18945 0.17818,-3.21026 -1.39591,-6.37502 -3.93834,-8.30723 -1.80011,-1.42527 -4.13425,-2.0455 -6.40932,-1.93301 z m 22.86719,4.97461 c 2.45221,0.12615 4.52074,2.35109 4.4668,4.80664 -0.0312,3.17215 0.0622,6.35036 -0.0462,9.51879 -0.23764,2.67781 -3.05909,4.79444 -5.69742,4.12563 -2.2704,-0.48095 -4.12408,-2.66695 -3.90672,-5.03817 0.0296,-3.11003 -0.059,-6.22531 0.0439,-9.33213 0.28602,-2.42307 2.69095,-4.39854 5.13967,-4.08076 z m 48.88867,0 c 2.45221,0.12615 4.52075,2.35109 4.4668,4.80664 -0.0312,3.17215 0.0622,6.35036 -0.0462,9.51879 -0.23764,2.67782 -3.05909,4.79442 -5.69742,4.12564 -2.27075,-0.48154 -4.12252,-2.66722 -3.90672,-5.03818 0.0296,-3.11003 -0.059,-6.22531 0.0439,-9.33213 0.28602,-2.42307 2.69095,-4.39854 5.13967,-4.08076 z" />
    <path
       id="path2260"
       style="font-size:50.5352px;line-height:1.25;font-family:'NovaMono for Powerline';-inkscape-font-specification:'NovaMono for Powerline';letter-spacing:-3.93227px;word-spacing:0px;display:inline;mix-blend-mode:soft-light;fill:none;fill-opacity:1;stroke:#2d3c61;stroke-width:0.396875;stroke-linecap:square;stroke-linejoin:miter;stroke-miterlimit:4;stroke-dasharray:none;stroke-opacity:1;paint-order:normal"
       inkscape:label="outline"
       d="m 151.45117,132.50195 c -1.7755,0.77442 -3.54951,1.55326 -5.32422,2.33008 0,12.62175 0,25.24349 0,37.86524 2.02173,-0.88357 4.04314,-1.76784 6.06446,-2.65235 0.0329,-6.00797 -0.0681,-12.02171 0.0564,-18.02599 0.35912,-2.57596 3.39698,-4.23898 5.78049,-3.24759 1.87544,0.70101 2.99301,2.76962 2.75486,4.72632 0,6.39987 0,12.79974 0,19.19961 2.02229,-0.88378 4.04449,-1.76773 6.06641,-2.65235 -0.035,-6.18251 0.0734,-12.36867 -0.0625,-18.54883 -0.49081,-5.12697 -5.37967,-9.37057 -10.53125,-9.10742 -1.39525,0.0322 -2.79132,0.31147 -4.06445,0.89063 0,-3.70052 0,-7.40104 0,-11.10157 -0.24675,0.10808 -0.49349,0.21615 -0.74024,0.32422 z m 78.77735,9.79493 c -1.5812,0.0655 -3.15382,0.59093 -4.40821,1.5664 -2.87575,-2.26212 -7.3906,-2.08227 -10.03172,0.47745 -1.79032,1.59856 -2.73711,4.03456 -2.53468,6.42372 0,7.28034 0,14.56068 0,21.84102 2.02228,-0.88378 4.04449,-1.76773 6.0664,-2.65235 0.0277,-6.7579 -0.0428,-13.52184 0.0786,-20.27589 0.2437,-1.28134 2.11659,-1.92786 2.93661,-0.78595 0.79278,1.14332 0.3164,2.62638 0.44023,3.91888 -0.007,6.59843 -0.0164,13.19687 -0.0218,19.79531 2.02228,-0.88378 4.04449,-1.76773 6.0664,-2.65235 0.022,-6.73485 -0.0317,-13.4737 0.0677,-20.20598 0.18804,-1.29225 2.03726,-2.01529 2.90498,-0.90534 0.8499,1.10799 0.35719,2.5918 0.48256,3.86953 -0.007,6.63138 -0.0162,13.26276 -0.0216,19.89414 2.02228,-0.88378 4.04449,-1.76773 6.0664,-2.65235 -0.0196,-6.91116 0.0567,-13.8253 -0.0516,-20.73456 -0.25161,-3.57837 -3.35695,-6.7566 -6.97779,-6.89712 -0.35288,-0.0349 -0.70818,-0.0366 -1.06239,-0.0246 z m -29.41407,0.008 c -5.31578,0.0894 -10.04864,4.99855 -9.80835,10.3374 -0.0337,3.42497 -0.0694,6.85517 0.0317,10.27759 0.46925,4.93427 4.98939,9.11955 9.96312,9.1256 4.73916,0.24864 9.364,-3.22229 10.4105,-7.85705 0.54855,-2.26099 0.18612,-4.60156 0.29239,-6.90032 -0.0426,-2.2163 0.12519,-4.45403 -0.17454,-6.6551 -0.89889,-4.9104 -5.71604,-8.70396 -10.71485,-8.32812 z m 48.88672,0 c -5.31698,0.0899 -10.0429,5.00236 -9.80973,10.33901 -0.0239,3.42656 -0.064,6.85802 0.0395,10.28187 0.46476,4.97097 5.05903,9.16739 10.06454,9.12309 4.75903,0.20085 9.36863,-3.34503 10.33949,-8.01678 0.50209,-2.21459 0.15241,-4.49841 0.25807,-6.74553 -0.0393,-2.25112 0.12838,-4.52479 -0.19458,-6.75901 -0.94657,-4.86163 -5.73586,-8.59671 -10.69727,-8.22265 z m -116.60547,0.0918 c -5.31503,0.0906 -10.04664,4.9992 -9.8064,10.3374 -0.0337,3.42497 -0.0694,6.85518 0.0317,10.27759 0.46937,4.93452 4.98932,9.11884 9.96309,9.12619 3.12222,0.15142 6.26556,-1.28494 8.15196,-3.78561 1.79135,-2.10661 2.78459,-4.89653 2.55025,-7.66807 0,-0.89401 0,-1.78802 0,-2.68203 -2.02821,0.89992 -4.05607,1.80061 -6.08399,2.70117 0.2998,1.97868 -0.64623,4.18527 -2.5537,4.98392 -2.55704,1.16328 -5.93985,-0.8621 -6.0048,-3.70471 -0.0339,-2.40448 0.0114,-4.81223 -0.0198,-7.21865 0.0577,-1.55996 -0.23776,-3.34575 0.90776,-4.61123 1.44796,-1.87598 4.49472,-2.26052 6.23746,-0.57801 1.17133,1.01578 1.60162,2.62011 1.45262,4.12283 0,0.89518 0,1.79036 0,2.68554 2.01817,-0.90896 4.03676,-1.81703 6.05468,-2.72656 0.27567,-3.27277 -1.04825,-6.64191 -3.57792,-8.75903 -1.97056,-1.76817 -4.66929,-2.65052 -7.30294,-2.50074 z m 45.72461,0 c -5.3146,0.0898 -10.05138,5.00046 -9.80353,10.3394 -0.0693,6.65347 -0.007,13.30761 -0.0285,19.96139 2.02228,-0.88378 4.04449,-1.76773 6.06641,-2.65235 0.0181,-5.99054 -0.0471,-11.98399 0.043,-17.97265 0.3685,-2.67368 3.60032,-4.39079 6.02559,-3.20374 1.75298,0.77731 2.74319,2.75942 2.52323,4.63303 0,0.8875 0,1.775 0,2.6625 2.01918,-0.88213 4.03758,-1.76604 6.05664,-2.64844 0.42125,-4.87572 -3.07986,-9.79081 -7.88077,-10.84805 -0.98073,-0.23516 -1.99531,-0.31634 -3.00204,-0.27109 z m 22.8418,6.03125 c 2.1885,0.084 4.16324,2.2413 3.97607,4.49493 -0.0548,3.21625 0.1202,6.44509 -0.10378,9.653 -0.46701,2.42509 -3.33946,4.08573 -5.64068,3.0624 -1.84711,-0.67874 -3.1163,-2.65412 -2.84609,-4.62361 0.0504,-3.09292 -0.11162,-6.19782 0.0945,-9.28286 0.41095,-2.0055 2.46355,-3.57456 4.52,-3.30386 z m 48.88867,0 c 2.1885,0.084 4.16324,2.2413 3.97607,4.49493 -0.0547,3.21625 0.12021,6.44509 -0.10378,9.653 -0.46701,2.42509 -3.33946,4.08573 -5.64068,3.0624 -1.84727,-0.67994 -3.11341,-2.65393 -2.84609,-4.62361 0.0504,-3.09292 -0.11162,-6.19782 0.0945,-9.28286 0.41095,-2.0055 2.46355,-3.57456 4.52,-3.30386 z" />
  </g>
</svg>
